<svg xmlns="http://www.w3.org/2000/svg" width="1200" height="630" viewBox="0 0 1200 630">
  <defs>
    <linearGradient id="bg" x1="0" y1="0" x2="1" y2="1">
      <stop offset="0%" stop-color="#081e3f"/>
      <stop offset="55%" stop-color="#0a2750"/>
      <stop offset="100%" stop-color="#0b1b33"/>
    </linearGradient>
    <radialGradient id="globe" cx="35%" cy="30%" r="70%">
      <stop offset="0%" stop-color="#9ad9ff"/>
      <stop offset="55%" stop-color="#3f95ff"/>
      <stop offset="100%" stop-color="#1a4d8f"/>
    </radialGradient>
    <filter id="softGlow" x="-50%" y="-50%" width="200%" height="200%">
      <feGaussianBlur stdDeviation="14" result="blur"/>
      <feMerge>
        <feMergeNode in="blur"/>
        <feMergeNode in="SourceGraphic"/>
      </feMerge>
    </filter>
  </defs>

  <rect width="1200" height="630" fill="url(#bg)"/>

  <g transform="translate(430,88)" filter="url(#softGlow)">
    <circle cx="170" cy="170" r="170" fill="url(#globe)"/>
    <path d="M88 122c22-22 46-34 75-33 17 1 20 17 7 28-8 7-12 14-12 22 0 9 11 12 31 8 16-4 28 0 38 12 10 13 5 22-13 27-18 4-31 14-39 31-8 16-20 23-36 21-22-4-33-19-31-43 2-21-8-36-29-44-16-6-13-18 9-29z" fill="#35cf88" opacity="0.9"/>
    <path d="M260 196c22-3 38 3 48 17 9 13 7 26-7 40-15 14-34 20-57 19-16-2-24-11-24-26 0-25 13-41 40-50z" fill="#3bda97" opacity="0.92"/>
    <path d="M132 255c21-6 42-2 62 12 15 10 18 23 9 38-11 16-30 22-58 18-29-3-44-15-47-35-2-15 9-26 34-33z" fill="#2dc27e" opacity="0.9"/>
  </g>

  <text x="600" y="516" fill="#eef6ff" font-size="58" font-weight="800" text-anchor="middle" font-family="Segoe UI, Microsoft YaHei, Arial, sans-serif">hį÷</text>
  <text x="600" y="562" fill="#b7cee7" font-size="30" font-weight="500" text-anchor="middle" font-family="Segoe UI, Microsoft YaHei, Arial, sans-serif">°˛°U</text>
</svg>
